# Blender 5.1.0
# www.blender.org
mtllib invertSword.mtl
o Fox
v -0.033156 -0.087201 0.067237
v -0.028233 0.186973 0.057470
v -0.028233 0.186973 0.057470
v -0.028233 0.186973 0.057470
v -0.028233 0.186973 0.057470
v -0.028233 0.186973 0.057470
v -0.033156 -0.087201 -0.067237
v -0.028233 0.186973 -0.057470
v -0.028233 0.186973 -0.057470
v -0.028233 0.186973 -0.057470
v -0.028233 0.186973 -0.057470
v -0.028233 0.186973 -0.057470
v 0.044482 -0.087201 0.067237
v 0.039559 0.186973 0.057470
v 0.039559 0.186973 0.057470
v 0.039559 0.186973 0.057470
v 0.044482 -0.087201 -0.067237
v 0.039559 0.186973 -0.057470
v 0.039559 0.186973 -0.057470
v 0.039559 0.186973 -0.057470
v -0.028233 0.629672 0.132722
v -0.028233 0.629672 0.132722
v -0.028233 0.629672 -0.132722
v -0.028233 0.629672 -0.132722
v 0.039559 0.629672 -0.132722
v 0.039559 0.629672 0.132722
v -0.002556 0.841914 0.024884
v -0.002556 0.841914 0.024884
v -0.002556 0.841914 -0.024884
v -0.002556 0.841914 -0.024884
v 0.013882 0.841914 -0.024884
v 0.013882 0.841914 -0.024884
v 0.013882 0.841914 0.024884
v 0.013882 0.841914 0.024884
v -0.028233 0.103143 0.057470
v -0.028233 0.103143 0.057470
v -0.028233 0.103143 0.057470
v -0.028233 0.103143 -0.057470
v -0.028233 0.103143 -0.057470
v -0.028233 0.103143 -0.057470
v 0.039559 0.103143 -0.057470
v 0.039559 0.103143 -0.057470
v 0.039559 0.103143 0.057470
v 0.039559 0.103143 0.057470
v -0.028233 0.103143 0.191127
v -0.028233 0.103143 0.191127
v -0.028233 0.186973 0.191127
v -0.028233 0.186973 0.191127
v -0.028233 0.186973 -0.191127
v -0.028233 0.186973 -0.191127
v 0.039559 0.186973 -0.191127
v 0.039559 0.186973 -0.191127
v 0.039559 0.186973 0.191127
v 0.039559 0.186973 0.191127
v -0.028233 0.103143 -0.191127
v -0.028233 0.103143 -0.191127
v 0.039559 0.103143 -0.191127
v 0.039559 0.103143 -0.191127
v 0.039559 0.103143 0.191127
v 0.039559 0.103143 0.191127
v -0.071975 -0.087201 0.000000
v -0.071975 -0.087201 0.000000
v -0.051889 0.186973 -0.000000
v -0.051889 0.186973 -0.000000
v -0.051889 0.186973 -0.000000
v 0.083301 -0.087201 0.000000
v 0.063214 0.186973 -0.000000
v 0.063214 0.186973 -0.000000
v -0.051889 0.520027 -0.000000
v 0.063214 0.520027 -0.000000
v -0.008292 0.841914 -0.000000
v 0.019618 0.841914 -0.000000
v 0.019618 0.841914 -0.000000
v 0.063214 0.103143 -0.000000
v -0.051889 0.103143 -0.000000
v -0.051889 0.103143 -0.000000
v -0.021359 -0.148776 0.046803
v -0.021359 -0.148776 0.046803
v -0.021359 -0.148776 -0.046803
v -0.021359 -0.148776 -0.046803
v 0.032685 -0.148776 0.046803
v 0.032685 -0.148776 0.046803
v 0.032685 -0.148776 -0.046803
v 0.032685 -0.148776 -0.046803
v -0.048380 -0.148776 0.000000
v -0.048380 -0.148776 0.000000
v -0.048380 -0.148776 0.000000
v 0.059706 -0.148776 0.000000
v 0.059706 -0.148776 0.000000
vn -0.9992 0.0390 -0.0002
vn -0.9999 -0.0130 -0.0002
vn -0.8525 0.2295 -0.4697
vn -0.8106 -0.2501 -0.5295
vn -0.8524 0.2298 0.4698
vn -0.8106 -0.2503 0.5295
vn -0.5773 -0.5774 0.5774
vn -0.5774 0.5773 0.5773
vn 0.9992 0.0390 -0.0000
vn 0.9999 -0.0131 -0.0000
vn 0.8525 0.2295 0.4696
vn 0.8106 -0.2501 0.5295
vn 0.8107 -0.2500 -0.5294
vn -0.8106 -0.2503 -0.5293
vn -0.5773 -0.5774 -0.5774
vn 0.5773 -0.5774 -0.5773
vn -0.8523 0.2296 0.4700
vn 0.8523 0.2298 0.4698
vn 0.6059 0.1572 0.7799
vn -0.6061 0.1571 0.7797
vn 0.9997 0.0232 -0.0000
vn 0.6059 0.1572 -0.7799
vn 0.5131 0.7412 -0.4329
vn 0.7076 0.7066 -0.0000
vn 0.8524 0.2298 -0.4698
vn -0.8523 0.2297 -0.4699
vn -0.6060 0.1572 -0.7798
vn -0.9999 -0.0131 -0.0000
vn -0.8524 0.2296 0.4697
vn -0.6056 0.1571 0.7801
vn -0.9997 0.0232 -0.0000
vn 0.7078 0.7064 -0.0000
vn -0.7077 0.7065 -0.0000
vn -0.5132 0.7412 0.4327
vn 0.5131 0.7411 0.4330
vn 0.5131 0.7412 0.4329
vn -0.5132 0.7413 0.4326
vn -0.5131 0.7413 -0.4327
vn 0.5080 -0.1391 0.8501
vn -0.8106 -0.2501 0.5295
vn -0.5079 -0.1391 0.8501
vn 0.9913 -0.1317 -0.0000
vn -0.5080 -0.1391 -0.8501
vn 0.8106 -0.2501 -0.5295
vn 0.5079 -0.1391 -0.8501
vn -0.9913 -0.1316 -0.0000
vn -0.5774 -0.5773 -0.5773
vn -0.5773 0.5774 -0.5774
vn 0.5774 0.5773 -0.5774
vn 0.5773 -0.5774 -0.5774
vn 0.5774 -0.5773 0.5774
vn 0.5773 0.5774 0.5774
vn -0.8106 -0.2503 0.5293
vn 0.5773 -0.5773 0.5774
vn -0.5774 -0.5774 0.5773
vn 0.8523 0.2296 -0.4699
vn 0.5772 0.5774 -0.5774
vn 0.8523 0.2296 0.4699
vn -0.8524 0.2298 0.4697
vn -0.5773 0.5774 0.5774
vn 0.5773 0.5774 0.5773
vn -0.8106 -0.2503 -0.5295
vn -0.8524 0.2298 -0.4698
vn -0.8524 0.2298 -0.4697
vn -0.5774 0.5774 -0.5773
vn -0.9992 0.0390 0.0002
vn -0.9913 -0.1317 -0.0000
vn -0.6057 0.1572 -0.7800
vn -0.5132 0.7412 -0.4327
vn 0.5131 0.7411 -0.4330
vn 0.8525 0.2295 -0.4697
vn -0.8525 0.2295 0.4697
vn -0.9999 -0.0130 0.0002
vn 0.3345 -0.7432 0.5794
vn 0.6690 -0.7432 -0.0000
vn -0.3345 -0.7432 0.5794
vn -0.3345 -0.7432 -0.5794
vn -0.6689 -0.7433 0.0003
vn 0.3345 -0.7432 -0.5794
vn -0.6689 -0.7434 -0.0001
vn -0.3345 -0.7431 0.5796
vn -0.6692 -0.7431 -0.0000
vn -0.3346 -0.7431 -0.5795
vn 0.3345 -0.7431 -0.5796
vn 0.6692 -0.7431 -0.0000
vn 0.3346 -0.7431 0.5795
vt 0.279970 0.416940
vt 0.372530 0.416940
vt 0.372530 0.485560
vt 0.279970 0.485560
vt 0.548470 0.412740
vt 0.633180 0.412740
vt 0.633180 0.547790
vt 0.548470 0.547790
vt 0.279550 0.626440
vt 0.370210 0.626900
vt 0.369640 0.694410
vt 0.278570 0.693640
vt 0.528030 0.565950
vt 0.528030 0.634450
vt 0.392970 0.634450
vt 0.392970 0.565950
vt 0.699590 0.064320
vt 0.691430 0.134580
vt 0.247220 0.081260
vt 0.234210 0.010220
vt 0.344100 0.202070
vt 0.245240 0.322870
vt 0.018810 0.231050
vt 0.017810 0.201110
vt 0.691340 0.271190
vt 0.699590 0.349220
vt 0.229980 0.392300
vt 0.691760 0.202860
vt 0.926740 0.020280
vt 0.989780 0.030420
vt 0.989780 0.490380
vt 0.872950 0.355990
vt 0.818750 0.693080
vt 0.823310 0.667220
vt 0.846050 0.674480
vt 0.844210 0.690820
vt 0.019060 0.171110
vt 0.010220 0.154020
vt 0.010510 0.247090
vt 0.096100 0.692020
vt 0.276250 0.766470
vt 0.091070 0.760600
vt 0.097090 0.625030
vt 0.090100 0.488640
vt 0.279680 0.559240
vt 0.096420 0.557480
vt 0.075190 0.412740
vt 0.804740 0.782020
vt 0.720030 0.782020
vt 0.720030 0.713520
vt 0.804740 0.713520
vt 0.633180 0.616300
vt 0.548470 0.616300
vt 0.392970 0.654890
vt 0.461470 0.654890
vt 0.461470 0.789950
vt 0.392970 0.789950
vt 0.528030 0.481240
vt 0.392970 0.481240
vt 0.546180 0.654890
vt 0.614690 0.654890
vt 0.614690 0.789950
vt 0.546180 0.789950
vt 0.804740 0.917080
vt 0.720030 0.917080
vt 0.528030 0.412740
vt 0.392970 0.412740
vt 0.275440 0.833280
vt 0.076160 0.835190
vt 0.720030 0.447100
vt 0.799310 0.667000
vt 0.796090 0.682710
vt 0.863680 0.010220
vt 0.370590 0.559730
vt 0.366370 0.767560
vt 0.365560 0.834370
vt 0.028860 0.689370
vt 0.025730 0.625120
vt 0.026270 0.750100
vt 0.024960 0.499640
vt 0.010220 0.442830
vt 0.028430 0.560670
vt 0.012120 0.806010
vt 0.392970 0.837690
vt 0.440270 0.810390
vt 0.487560 0.837690
vt 0.487560 0.892300
vt 0.440270 0.919610
vt 0.392970 0.892300
s 1
usemtl Material%2E_008
f 76/1/1 64/2/2 8/3/3
f 76/1/1 8/3/3 38/4/4
f 3/5/5 37/6/6 46/7/7
f 3/5/5 46/7/7 47/8/8
f 74/9/9 67/10/10 14/11/11
f 74/9/9 14/11/11 43/12/12
f 42/13/13 39/14/14 55/15/15
f 42/13/13 55/15/15 57/16/16
f 5/17/17 16/18/18 26/19/19
f 5/17/17 26/19/19 21/20/20
f 70/21/21 25/22/22 31/23/23
f 70/21/21 31/23/23 72/24/24
f 20/25/25 10/26/26 23/27/27
f 20/25/25 23/27/27 25/22/22
f 68/28/10 20/25/25 25/22/22
f 68/28/10 25/22/22 70/21/21
f 65/29/28 6/30/29 22/31/30
f 65/29/28 22/31/30 69/32/31
f 73/33/32 71/34/33 28/35/34
f 73/33/32 28/35/34 34/36/35
f 69/32/31 22/31/30 28/35/34
f 69/32/31 28/35/34 71/34/33
f 21/20/20 26/19/19 33/37/36
f 21/20/20 33/37/36 27/38/37
f 25/22/22 23/27/27 29/39/38
f 25/22/22 29/39/38 31/23/23
f 13/40/39 43/12/12 35/41/40
f 13/40/39 35/41/40 1/42/41
f 66/43/42 74/9/9 43/12/12
f 66/43/42 43/12/12 13/40/39
f 7/44/43 38/4/4 41/45/44
f 7/44/43 41/45/44 17/46/45
f 61/47/46 76/1/1 38/4/4
f 61/47/46 38/4/4 7/44/43
f 56/48/47 50/49/48 52/50/49
f 56/48/47 52/50/49 58/51/50
f 60/52/51 54/53/52 47/8/8
f 60/52/51 47/8/8 46/7/7
f 36/54/53 44/55/12 59/56/54
f 36/54/53 59/56/54 45/57/55
f 19/58/56 42/13/13 57/16/16
f 19/58/56 57/16/16 51/59/57
f 15/60/58 4/61/59 48/62/60
f 15/60/58 48/62/60 53/63/61
f 44/55/12 15/60/58 53/63/61
f 44/55/12 53/63/61 59/56/54
f 40/64/62 11/65/63 50/49/48
f 40/64/62 50/49/48 56/48/47
f 9/66/64 19/58/56 51/59/57
f 9/66/64 51/59/57 49/67/65
f 1/42/41 35/41/40 75/68/66
f 1/42/41 75/68/66 62/69/67
f 17/46/45 41/45/44 74/9/9
f 17/46/45 74/9/9 66/43/42
f 24/70/68 69/32/31 71/34/33
f 24/70/68 71/34/33 30/71/69
f 32/72/70 30/71/69 71/34/33
f 32/72/70 71/34/33 73/33/32
f 12/73/3 65/29/28 69/32/31
f 12/73/3 69/32/31 24/70/68
f 16/18/18 68/28/10 70/21/21
f 16/18/18 70/21/21 26/19/19
f 26/19/19 70/21/21 72/24/24
f 26/19/19 72/24/24 33/37/36
f 41/45/44 18/74/71 67/10/10
f 41/45/44 67/10/10 74/9/9
f 35/41/40 2/75/72 63/76/73
f 35/41/40 63/76/73 75/68/66
f 66/43/42 13/40/39 81/77/74
f 66/43/42 81/77/74 88/78/75
f 13/40/39 1/42/41 77/79/76
f 13/40/39 77/79/76 81/77/74
f 7/44/43 79/80/77 85/81/78
f 7/44/43 85/81/78 61/47/46
f 17/46/45 83/82/79 79/80/77
f 17/46/45 79/80/77 7/44/43
f 1/42/41 62/69/67 86/83/80
f 1/42/41 86/83/80 77/79/76
f 66/43/42 88/78/75 83/82/79
f 66/43/42 83/82/79 17/46/45
f 78/84/81 87/85/82 80/86/83
f 80/86/83 84/87/84 89/88/85
f 89/88/85 82/89/86 78/84/81
f 80/86/83 89/88/85 78/84/81
