# Blender 5.1.0
# www.blender.org
mtllib RockyGround.mtl
o floor_dirt_large_rocky
v -2.000000 -0.100000 2.000012
v 2.000000 -0.100000 2.000012
v 2.000000 -0.100000 -1.999987
v -2.000000 -0.100000 -1.999988
v 1.166332 -0.000000 -1.191999
v 1.073487 -0.000000 -0.963981
v 1.188479 0.085327 -0.996755
v 1.503449 -0.000000 -1.012513
v 1.495191 -0.000000 -1.233774
v 1.267952 -0.000000 -1.283321
v 1.428365 0.108606 -1.129817
v 1.490788 0.085911 -0.945433
v 1.254658 0.108606 -1.212890
v 1.239258 -0.000000 -0.860947
v 1.377379 -0.000000 -0.850423
v 1.067590 0.000000 1.442912
v 0.989784 0.000000 1.255696
v 0.929944 0.070114 1.297660
v 0.629429 0.000000 1.342245
v 0.765993 0.000000 1.636504
v 1.010831 0.000000 1.579274
v 0.803126 0.088635 1.475276
v 0.695233 0.070579 1.364172
v 0.956315 0.088635 1.475549
v 0.842571 0.000000 1.153648
v 0.702857 0.000000 1.207558
v -0.334326 -0.000000 -0.398590
v -0.359068 -0.000000 -0.451662
v -0.359068 0.058716 -0.478713
v -0.489904 -0.000000 -0.447174
v -0.468928 -0.000000 -0.355041
v -0.369712 -0.000000 -0.352250
v -0.445495 0.053563 -0.433253
v -0.369712 0.074734 -0.382838
v -0.391111 -0.000000 -0.531646
v -0.449866 -0.000000 -0.525126
v 1.180064 0.000000 0.917110
v 1.167424 0.000000 1.049975
v 1.218460 0.067885 1.068651
v 1.465068 0.000000 1.022455
v 1.434832 0.000000 0.848915
v 1.250381 0.000000 0.834223
v 1.393299 0.086405 0.938032
v 1.462280 0.068350 1.076693
v 1.247454 0.086405 0.891170
v 1.273052 0.000000 1.170267
v 1.383065 0.000000 1.163753
v -1.576842 -0.000000 -1.374978
v -1.602255 -0.000000 -1.322224
v -1.623192 0.058716 -1.305096
v -1.515939 -0.000000 -1.223797
v -1.457909 -0.000000 -1.298369
v -1.518569 -0.000000 -1.376930
v -1.533281 0.053563 -1.266984
v -1.542244 0.074734 -1.357562
v -1.643873 -0.000000 -1.246778
v -1.601625 -0.000000 -1.205429
v 1.188170 -0.000000 -0.827231
v 1.119213 -0.000000 -0.797317
v 1.130580 0.038438 -0.758889
v 1.191171 -0.000000 -0.671822
v 1.262023 -0.000000 -0.734340
v 1.191966 0.038438 -0.702667
v 1.201203 0.038438 -0.779825
v 1.069716 -0.000000 -0.718128
v 1.103565 -0.000000 -0.669662
v -1.225121 0.000000 0.746255
v -1.294078 0.000000 0.776170
v -1.282711 0.038438 0.814598
v -1.222121 0.000000 0.901664
v -1.151269 0.000000 0.839146
v -1.221326 0.038438 0.870819
v -1.212088 0.038438 0.793661
v -1.343575 0.000000 0.855358
v -1.309727 0.000000 0.903824
v -1.270161 -0.000000 -1.260968
v -1.380423 -0.000000 -1.185768
v -1.362166 0.067885 -1.134581
v -1.169016 -0.000000 -0.974448
v -1.054876 -0.000000 -1.108621
v -1.161470 -0.000000 -1.259868
v -1.149960 0.086405 -1.083603
v -1.212511 0.068350 -0.941925
v -1.207138 0.086405 -1.225721
v -1.405423 -0.000000 -1.027647
v -1.330097 -0.000000 -0.947202
v 1.083719 0.000000 0.771411
v 1.112280 0.034299 0.777775
v 1.109266 0.000000 0.445031
v 1.109266 0.034299 0.445031
v 0.394776 0.000000 0.487112
v 0.470798 0.000000 0.909438
v 0.844793 0.000000 1.104019
v 0.452418 0.112931 0.942956
v 0.394776 0.112931 0.487112
v 0.857269 0.112931 1.129763
v 0.990019 0.034299 0.011448
v 0.987213 0.000000 0.053227
v 0.552685 0.000000 0.098284
v 0.552685 0.112931 0.098284
v 0.765836 0.047912 0.967945
v 0.781172 0.112951 0.987304
v 1.039420 0.028825 0.700428
v 1.045863 0.168284 0.692651
v 0.668384 0.028653 0.321087
v 0.450057 0.043956 0.568812
v 0.528285 0.052861 0.826376
v 0.426562 0.201224 0.569439
v 0.679018 0.258847 0.308250
v 0.530822 0.292793 0.837806
v 0.934167 0.006478 0.308831
v 0.882668 0.167766 0.361581
v 1.144841 -0.000000 -1.050391
v 1.163075 0.130581 -1.064988
v 1.329364 -0.000000 -1.466321
v 0.537610 -0.000000 -1.317472
v 0.822080 -0.000000 -1.072285
v 0.587450 0.032584 -1.312427
v 0.753749 -0.000000 -1.679420
v 0.804559 0.218457 -1.155396
v 0.650658 0.013462 -0.831661
v 0.651956 0.091810 -0.827555
v 1.098055 0.145543 -1.025890
v 0.904696 0.165560 -0.681686
v 1.093844 0.174998 -0.810445
v 1.104483 0.013462 -1.039182
v 1.096207 0.013462 -0.836599
v 0.896453 0.013462 -0.707765
v 0.777721 0.107580 -1.008482
v 0.773246 0.013462 -1.022637
v 0.896402 0.115627 -1.118038
v 0.895104 0.082049 -1.122145
v -1.130742 0.000982 -1.632846
v -1.130742 0.094162 -1.632846
v -1.267892 0.000982 -1.578232
v -1.267892 0.094162 -1.578232
v -1.266919 0.000982 -1.267321
v -1.054193 0.000982 -1.315070
v -0.979921 0.000982 -1.492268
v -1.063452 0.224386 -1.315242
v -1.266919 0.222144 -1.267321
v -0.989180 0.155366 -1.492439
v -1.434615 0.094162 -1.464752
v -1.434615 0.000982 -1.464752
v -1.424326 0.000982 -1.322741
v -1.424326 0.222144 -1.322741
v 0.716994 0.013462 -0.691730
v 0.722061 0.171340 -0.675699
v -2.000000 0.020000 2.000012
v -2.000000 0.020000 -1.999988
v 2.000000 0.020000 -1.999987
v 2.000000 0.020000 2.000012
vn -0.7227 0.5790 -0.3775
vn -0.6220 0.7409 -0.2533
vn -0.6743 0.7017 -0.2301
vn -0.3663 0.7200 0.5894
vn -0.1396 0.8141 0.5637
vn -0.1609 0.8915 0.4235
vn -0.7365 0.5146 -0.4390
vn -0.0710 0.9313 0.3572
vn -0.0693 0.9870 0.1450
vn -0.0335 0.9929 0.1138
vn 0.5434 0.6674 -0.5092
vn 0.2219 0.6340 -0.7408
vn 0.5691 0.7238 -0.3903
vn 0.9112 0.3984 -0.1048
vn 0.9841 0.1737 -0.0367
vn -0.6205 0.3718 -0.6905
vn -0.0845 0.8093 0.5813
vn 0.7420 -0.3412 0.5771
vn -0.0846 0.8093 0.5812
vn 0.1778 0.5507 -0.8156
vn 0.6408 0.7677 -0.0076
vn 0.5423 0.7210 -0.4313
vn 0.2777 0.9005 -0.3347
vn -0.0054 0.9004 -0.4351
vn 0.3123 0.9319 0.1846
vn -0.4775 0.8776 -0.0420
vn -0.1697 0.9646 0.2020
vn -0.2093 0.8462 0.4901
vn -0.7216 0.6901 -0.0558
vn 0.3762 0.7927 0.4797
vn -0.2526 0.8845 -0.3923
vn 0.9536 0.2427 0.1781
vn 0.8995 -0.1828 -0.3969
vn 0.9649 0.0234 -0.2615
vn 0.9149 -0.1689 -0.3665
vn 0.8940 0.3701 0.2524
vn -0.6379 0.7111 0.2958
vn -0.3180 0.9446 0.0814
vn -0.5221 0.8507 -0.0610
vn -0.6380 0.7110 0.2958
vn -0.7508 0.6512 -0.1107
vn 0.7713 0.2411 0.5890
vn -0.2026 0.8861 -0.4169
vn -0.3582 0.7648 -0.5355
vn -0.0797 0.6911 -0.7183
vn -0.0260 0.3787 0.9252
vn -0.7957 0.5460 -0.2622
vn -0.8092 0.5563 0.1891
vn -0.8022 0.5174 0.2979
vn -0.7016 0.3580 0.6161
vn -0.7890 0.5146 -0.3357
vn -0.0222 0.9313 0.3635
vn -0.0492 0.9870 0.1530
vn -0.0178 0.9929 0.1173
vn 0.4699 0.6674 -0.5778
vn 0.1200 0.6340 -0.7640
vn 0.5113 0.7238 -0.4635
vn 0.8888 0.3984 -0.2267
vn 0.9702 0.1737 -0.1690
vn -0.7079 0.3718 -0.6005
vn -0.0013 0.9472 0.3206
vn -0.0054 0.8093 0.5874
vn 0.8130 -0.3412 0.4718
vn 0.0322 0.8390 0.5432
vn -0.0055 0.8093 0.5873
vn 0.0663 0.5507 -0.8321
vn -0.4660 0.2427 -0.8509
vn -0.8767 -0.1828 -0.4449
vn -0.8134 0.0235 -0.5813
vn -0.8630 -0.1689 -0.4761
vn -0.3707 0.3701 -0.8518
vn 0.6329 0.7110 0.3064
vn 0.2643 0.9446 0.1946
vn 0.2833 0.8507 0.4427
vn 0.6329 0.7110 0.3065
vn 0.3897 0.6512 0.6512
vn -0.0325 0.2411 -0.9700
vn -0.1944 0.8861 0.4208
vn -0.1877 0.7648 0.6163
vn -0.5055 0.6911 0.5165
vn 0.7326 0.3787 -0.5656
vn -0.2175 0.7610 -0.6113
vn -0.4417 0.6963 -0.5658
vn -0.3652 0.9085 -0.2028
vn -0.6684 0.6154 -0.4178
vn 0.0795 0.9652 -0.2493
vn 0.5580 0.7770 0.2914
vn 0.2188 0.8718 0.4383
vn 0.2579 0.6014 0.7561
vn -0.2677 0.8722 0.4094
vn -0.3810 0.8855 0.2661
vn 0.6995 0.4487 -0.5562
vn -0.2175 0.7610 -0.6112
vn -0.3069 0.5460 -0.7796
vn -0.6626 0.5563 -0.5015
vn -0.7419 0.5174 -0.4265
vn -0.9223 0.3580 -0.1458
vn -0.2461 0.5146 -0.8214
vn -0.2938 0.9313 0.2152
vn -0.1491 0.9870 0.0600
vn -0.1016 0.9929 0.0612
vn 0.7447 0.6674 -0.0079
vn 0.6643 0.6340 -0.3960
vn 0.6832 0.7238 0.0970
vn 0.7424 0.3984 0.5387
vn 0.7501 0.1737 0.6381
vn 0.0094 0.3718 -0.9283
vn -0.2474 0.9472 0.2040
vn -0.4552 0.8093 0.3712
vn 0.1568 -0.3412 0.9268
vn -0.3972 0.8390 0.3719
vn -0.4552 0.8094 0.3711
vn 0.6823 0.5507 -0.4809
vn 0.7504 -0.5969 0.2838
vn 0.9899 -0.0386 -0.1362
vn 0.9904 -0.0000 -0.1383
vn 0.8897 -0.3654 -0.2736
vn 0.7618 -0.2476 0.5986
vn 0.7132 -0.6449 0.2749
vn 0.1474 0.9885 -0.0328
vn 0.1044 0.9936 -0.0422
vn 0.2913 0.9566 -0.0026
vn 0.0882 0.9961 -0.0094
vn -0.0000 1.0000 -0.0000
vn -0.4073 -0.2935 0.8649
vn -0.4462 -0.1823 0.8762
vn -0.3969 -0.3199 0.8603
vn -0.9771 -0.1679 0.1310
vn -0.9940 -0.0169 -0.1079
vn -0.9946 -0.0000 -0.1036
vn 0.7653 -0.2223 0.6041
vn -0.0659 -0.7690 -0.6358
vn -0.1948 -0.0000 -0.9809
vn 0.1316 0.9912 0.0136
vn -0.9265 -0.0000 -0.3763
vn 0.1679 0.9847 -0.0462
vn -0.9731 -0.1949 0.1230
vn 0.8738 -0.4030 -0.2722
vn -0.4564 -0.1495 0.8771
vn 0.6707 -0.2814 0.6863
vn 0.7374 -0.0365 0.6745
vn 0.7436 0.0029 0.6686
vn 0.6346 0.3144 -0.7060
vn 0.6703 0.3742 -0.6408
vn 0.9145 0.0542 -0.4009
vn 0.8950 -0.0659 -0.4411
vn -0.8001 -0.0272 0.5992
vn -0.5094 -0.1329 0.8502
vn -0.5190 -0.0917 0.8498
vn 0.3120 0.9432 0.1143
vn 0.1088 0.9878 0.1115
vn 0.3277 0.8305 0.4503
vn 0.1477 0.9836 -0.1036
vn -0.3778 0.9112 -0.1641
vn -0.9322 -0.0792 0.3531
vn -0.7962 -0.0455 0.6033
vn -0.9067 -0.1370 0.3990
vn -0.7212 -0.0675 -0.6894
vn -0.7375 -0.0320 -0.6745
vn -0.7503 -0.0022 -0.6611
vn 0.4458 0.8674 -0.2211
vn 0.1045 0.1034 -0.9891
vn -0.0504 -0.0533 -0.9973
vn -0.7039 -0.1024 -0.7029
vn -0.7375 -0.0320 -0.6746
vn 0.6412 -0.3539 0.6809
vn -0.3844 0.2917 0.8759
vn -0.0672 0.1201 0.9905
vn -0.0990 0.2040 0.9740
vn 0.1995 0.9278 -0.3151
vn -0.0049 0.9465 -0.3228
vn 0.2788 0.9412 -0.1907
vn -0.1072 0.9211 -0.3743
vn -0.4952 0.8165 -0.2969
vn -0.4448 0.2871 0.8484
vn -0.5514 0.5635 0.6152
vn -0.5008 0.8123 -0.2990
vn -0.4898 0.6612 0.5683
vn 0.9110 -0.0820 0.4042
vn -0.9036 -0.0075 0.4284
vn -0.9046 -0.0122 0.4261
vn -0.9042 -0.0104 0.4269
vn -0.9050 -0.0141 0.4252
vn -0.7621 0.1205 -0.6362
vn -0.8361 0.0625 -0.5450
vn -0.7537 0.1326 -0.6437
vn 0.3988 0.1095 -0.9105
vn 0.3938 0.0966 -0.9141
vn 0.3956 0.1012 -0.9128
vn -0.1552 0.9776 -0.1423
vn -0.1277 0.9699 -0.2072
vn -0.0559 0.9861 -0.1565
vn -0.6701 0.1244 -0.7318
vn 0.9992 0.0309 0.0247
vn 0.9993 0.0228 0.0304
vn 0.9991 0.0080 0.0408
vn -0.1275 0.9854 -0.1127
vn -0.1206 0.9910 -0.0578
vn 0.5519 -0.1420 0.8217
vn 0.3140 -0.1518 0.9372
vn 0.3205 -0.1769 0.9306
vn -0.1420 0.9804 -0.1368
vn 0.0555 -0.1338 0.9895
vn 0.3994 0.1110 -0.9100
vn -0.3700 -0.0000 -0.9291
vn -0.4691 -0.0000 -0.8831
vn -0.3562 0.5200 -0.7763
vn -0.5122 0.4140 -0.7525
vn 0.6912 0.0295 -0.7220
vn 0.6818 -0.0000 -0.7315
vn 0.6870 0.0158 -0.7265
vn -0.0977 0.9261 -0.3644
vn -0.1174 0.9483 -0.2949
vn 0.0158 0.9230 -0.3844
vn -0.1039 0.9113 -0.3985
vn 0.9247 0.0464 0.3778
vn 0.9245 0.0459 0.3784
vn 0.9216 0.0385 0.3863
vn 0.2239 0.0049 0.9746
vn -0.0552 0.0027 0.9985
vn -0.0588 -0.0000 0.9983
vn 0.6947 0.0409 -0.7182
vn -0.9974 -0.0000 0.0723
vn -0.0341 0.8851 -0.4642
vn -0.3321 -0.0000 0.9432
vn 0.2291 0.0102 0.9733
vn -0.5627 -0.0000 -0.8267
vn 0.9284 0.0561 0.3673
vn -0.4533 0.8584 -0.2403
vn 0.5626 -0.1241 0.8174
vn 0.0294 -0.1019 0.9944
vn -0.0295 -0.8057 -0.5915
vn -0.8408 0.0422 -0.5397
vn -0.6665 0.1158 -0.7364
vn 0.9988 0.0473 0.0131
vn -0.0000 -0.0000 -1.0000
vn 1.0000 -0.0000 -0.0000
vn -0.0000 -0.0000 1.0000
vn -1.0000 -0.0000 -0.0000
vt 0.968719 0.797697
vt 0.968719 0.856683
vt 0.943537 0.837994
vt 0.924683 0.866082
vt 0.938187 0.796530
vt 0.896692 0.827477
vt 0.908543 0.802996
vt 0.886021 0.769889
vt 0.880223 0.818877
vt 0.945944 0.769336
vt 0.895257 0.857084
vt 0.800169 0.844254
vt 0.800169 0.801385
vt 0.819578 0.806651
vt 0.822095 0.770701
vt 0.828701 0.838095
vt 0.863331 0.802839
vt 0.853434 0.828077
vt 0.877048 0.856756
vt 0.879803 0.791749
vt 0.824153 0.866851
vt 0.854347 0.769336
vt 0.709111 0.948831
vt 0.706505 0.908990
vt 0.738750 0.900413
vt 0.728777 0.857003
vt 0.753149 0.931238
vt 0.817197 0.954314
vt 0.779375 0.905223
vt 0.817197 0.882871
vt 0.748037 0.974865
vt 0.767629 0.840968
vt 0.950132 0.888791
vt 0.948502 0.922556
vt 0.930551 0.920925
vt 0.921418 0.944585
vt 0.924603 0.889365
vt 0.894407 0.917612
vt 0.901615 0.897056
vt 0.880223 0.872022
vt 0.880223 0.912325
vt 0.929215 0.866502
vt 0.896612 0.941852
vt 0.597215 0.948831
vt 0.594609 0.908990
vt 0.626854 0.900414
vt 0.616881 0.857004
vt 0.641253 0.931238
vt 0.705301 0.954314
vt 0.667480 0.905224
vt 0.705301 0.882871
vt 0.636141 0.974866
vt 0.655733 0.840968
vt 0.796439 0.898017
vt 0.781883 0.852382
vt 0.812205 0.844665
vt 0.803391 0.798437
vt 0.826641 0.876740
vt 0.869014 0.898017
vt 0.851972 0.852044
vt 0.877044 0.839076
vt 0.842504 0.794213
vt 0.832957 0.944772
vt 0.818401 0.899137
vt 0.848723 0.891420
vt 0.839908 0.845192
vt 0.863158 0.923495
vt 0.772648 0.898017
vt 0.755607 0.852044
vt 0.780679 0.839076
vt 0.746139 0.794213
vt 0.800169 0.923065
vt 0.801799 0.889300
vt 0.819750 0.890931
vt 0.828883 0.867271
vt 0.825698 0.922492
vt 0.855894 0.894244
vt 0.848686 0.914800
vt 0.870078 0.939835
vt 0.870078 0.899532
vt 0.821086 0.945355
vt 0.853689 0.870004
vt 0.704638 0.887637
vt 0.695586 0.809361
vt 0.705843 0.814951
vt 0.772882 0.754318
vt 0.741716 0.962786
vt 0.695586 0.890809
vt 0.753631 0.939174
vt 0.854460 0.847429
vt 0.819598 0.932907
vt 0.844223 0.963274
vt 0.882903 0.847037
vt 0.766050 0.748468
vt 0.840890 0.748288
vt 0.822545 0.771833
vt 0.802529 0.763290
vt 0.717962 0.973794
vt 0.742417 1.004758
vt 0.693297 0.916939
vt 0.667957 0.955495
vt 0.825302 0.837213
vt 0.786635 0.768211
vt 0.848503 0.780866
vt 0.682134 0.988184
vt 0.756729 0.739159
vt 0.789504 0.790458
vt 0.731361 0.984049
vt 0.786635 0.900327
vt 0.824696 0.837633
vt 0.840424 0.858821
vt 0.790908 0.790878
vt 0.703043 0.864010
vt 0.787480 0.935538
vt 0.826547 0.970533
vt 0.820938 0.983771
vt 0.856821 0.908895
vt 0.808782 0.886979
vt 0.857498 0.886738
vt 0.842914 0.866065
vt 0.922923 0.884379
vt 0.893023 0.866933
vt 0.919840 0.784503
vt 0.909133 0.841654
vt 0.902300 0.841626
vt 0.841405 0.841589
vt 0.861402 0.817362
vt 0.849224 0.778716
vt 0.889398 0.820298
vt 0.808782 0.832425
vt 0.972527 0.785021
vt 0.976285 0.829870
vt 0.957563 0.808060
vt 0.922003 0.819478
vt 0.975961 0.722709
vt 0.997289 0.786925
vt 0.951959 0.762224
vt 0.915224 0.780356
vt 0.928821 0.761959
vt 0.909452 0.717374
vt 0.872762 0.769550
vt 0.916699 0.843970
vt 0.872762 0.818890
vt 0.914672 0.798129
vt 0.360676 0.394440
vt 0.040974 0.358630
vt 0.043097 0.033439
vt 0.362799 0.069249
vt 0.030198 0.370198
vt 0.030198 0.021540
vt 0.373575 0.406338
vt 0.373575 0.057681
s 1
usemtl texture
f 5/1/1 6/2/2 7/3/3
f 6/2/4 14/4/5 7/3/6
f 7/3/3 13/5/7 5/1/1
f 12/6/8 11/7/9 13/5/10
f 9/8/11 13/5/12 11/7/13
f 9/8/11 12/6/14 8/9/15
f 5/1/1 13/5/7 10/10/16
f 7/3/6 15/11/17 12/6/8
f 12/6/18 15/11/18 8/9/18
f 12/6/8 13/5/10 7/3/6
f 14/4/5 15/11/19 7/3/6
f 11/7/13 12/6/14 9/8/11
f 10/10/20 13/5/12 9/8/11
f 16/12/21 17/13/22 18/14/23
f 17/13/22 25/15/24 18/14/23
f 18/14/23 24/16/25 16/12/21
f 23/17/26 22/18/27 24/16/25
f 20/19/28 24/16/25 22/18/27
f 20/19/28 23/17/26 19/20/29
f 16/12/21 24/16/25 21/21/30
f 18/14/23 26/22/31 23/17/26
f 23/17/26 26/22/31 19/20/29
f 23/17/26 24/16/25 18/14/23
f 25/15/24 26/22/31 18/14/23
f 22/18/27 23/17/26 20/19/28
f 21/21/30 24/16/25 20/19/28
f 27/23/32 28/24/33 29/25/34
f 28/24/33 35/26/35 29/25/34
f 29/25/34 34/27/36 27/23/32
f 31/28/37 34/27/38 33/29/39
f 31/28/40 33/29/39 30/30/41
f 27/23/32 34/27/36 32/31/42
f 29/25/43 36/32/44 33/29/39
f 33/29/39 36/32/44 30/30/41
f 33/29/39 34/27/38 29/25/43
f 35/26/45 36/32/44 29/25/43
f 32/31/46 34/27/46 31/28/46
f 37/33/47 38/34/48 39/35/49
f 38/34/48 46/36/50 39/35/49
f 39/35/49 45/37/51 37/33/47
f 44/38/52 43/39/53 45/37/54
f 41/40/55 45/37/56 43/39/57
f 41/40/55 44/38/58 40/41/59
f 37/33/47 45/37/51 42/42/60
f 39/35/61 47/43/62 44/38/52
f 44/38/63 47/43/63 40/41/63
f 44/38/52 45/37/54 39/35/61
f 46/36/64 47/43/65 39/35/61
f 43/39/57 44/38/58 41/40/55
f 42/42/66 45/37/56 41/40/55
f 48/44/67 49/45/68 50/46/69
f 49/45/68 56/47/70 50/46/69
f 50/46/69 55/48/71 48/44/67
f 52/49/72 55/48/73 54/50/74
f 52/49/75 54/50/74 51/51/76
f 48/44/67 55/48/71 53/52/77
f 50/46/78 57/53/79 54/50/74
f 54/50/74 57/53/79 51/51/76
f 54/50/74 55/48/73 50/46/78
f 56/47/80 57/53/79 50/46/78
f 53/52/81 55/48/81 52/49/81
f 58/54/82 59/55/83 60/56/84
f 59/55/83 65/57/85 60/56/84
f 60/56/84 64/58/86 58/54/82
f 62/59/87 64/58/86 63/60/88
f 62/59/87 63/60/88 61/61/89
f 60/56/84 66/62/90 63/60/88
f 63/60/88 66/62/90 61/61/89
f 63/60/88 64/58/86 60/56/84
f 65/57/91 66/62/90 60/56/84
f 58/54/92 64/58/92 62/59/92
f 67/63/93 68/64/83 69/65/84
f 68/64/83 74/66/85 69/65/84
f 69/65/84 73/67/86 67/63/93
f 71/68/87 73/67/86 72/69/88
f 71/68/87 72/69/88 70/70/89
f 69/65/84 75/71/90 72/69/88
f 72/69/88 75/71/90 70/70/89
f 72/69/88 73/67/86 69/65/84
f 74/66/91 75/71/90 69/65/84
f 67/63/92 73/67/92 71/68/92
f 76/72/94 77/73/95 78/74/96
f 77/73/95 85/75/97 78/74/96
f 78/74/96 84/76/98 76/72/94
f 83/77/99 82/78/100 84/76/101
f 80/79/102 84/76/103 82/78/104
f 80/79/102 83/77/105 79/80/106
f 76/72/94 84/76/98 81/81/107
f 78/74/108 86/82/109 83/77/99
f 83/77/110 86/82/110 79/80/110
f 83/77/99 84/76/101 78/74/108
f 85/75/111 86/82/112 78/74/108
f 82/78/104 83/77/105 80/79/102
f 81/81/113 84/76/103 80/79/102
f 88/83/114 89/84/115 90/85/116
f 89/84/115 97/86/117 90/85/116
f 93/87/118 87/88/119 88/83/114
f 90/85/120 96/89/121 88/83/122
f 95/90/123 94/91/124 96/89/121
f 92/92/125 96/89/126 94/91/127
f 92/92/128 95/90/129 91/93/130
f 88/83/114 96/89/131 93/87/118
f 98/94/132 99/95/132 97/86/132
f 99/95/133 100/96/133 97/86/133
f 90/85/120 100/96/134 95/90/123
f 95/90/129 99/95/135 91/93/130
f 95/90/123 96/89/121 90/85/120
f 97/86/136 100/96/134 90/85/120
f 94/91/137 95/90/129 92/92/128
f 100/96/135 99/95/135 95/90/129
f 98/94/138 97/86/117 89/84/115
f 87/88/119 89/84/115 88/83/114
f 93/87/139 96/89/126 92/92/125
f 102/97/140 103/98/141 104/99/142
f 111/100/143 112/101/144 103/98/145
f 103/98/145 112/101/144 104/99/146
f 107/102/147 101/103/148 102/97/149
f 104/99/150 110/104/151 102/97/152
f 109/105/153 108/106/154 110/104/151
f 106/107/155 110/104/156 108/106/157
f 106/107/158 109/105/159 105/108/160
f 102/97/149 110/104/156 107/102/147
f 104/99/150 112/101/161 109/105/153
f 109/105/162 111/100/143 105/108/163
f 109/105/153 110/104/151 104/99/150
f 108/106/164 109/105/165 106/107/158
f 112/101/144 111/100/143 109/105/162
f 101/103/166 103/98/141 102/97/140
f 107/102/147 110/104/156 106/107/155
f 117/109/167 113/110/168 114/111/169
f 115/112/170 120/113/171 114/111/172
f 119/114/173 118/115/174 120/113/171
f 120/113/175 118/115/176 117/109/167
f 114/111/169 120/113/175 117/109/167
f 119/114/173 120/113/171 115/112/170
f 118/115/174 119/114/173 116/116/177
f 117/109/167 118/115/176 116/116/178
f 113/110/179 115/112/179 114/111/179
f 121/117/180 147/118/181 122/119/182
f 147/118/181 148/120/183 122/119/182
f 130/121/184 122/119/185 129/122/186
f 126/123/187 132/124/188 131/125/189
f 129/122/190 148/120/191 124/126/192
f 131/125/193 130/121/184 129/122/186
f 126/123/194 125/127/195 127/128/196
f 129/122/190 123/129/197 131/125/198
f 127/128/199 124/126/200 128/130/201
f 124/126/192 125/127/202 123/129/197
f 124/126/200 147/118/203 128/130/201
f 131/125/189 123/129/204 126/123/187
f 124/126/192 123/129/197 129/122/190
f 134/131/205 135/132/206 136/133/207
f 135/132/206 143/134/208 136/133/207
f 139/135/209 133/136/210 134/131/211
f 136/133/207 142/137/212 134/131/213
f 141/138/214 140/139/215 142/137/212
f 139/135/216 140/139/217 138/140/218
f 138/140/219 141/138/220 137/141/221
f 134/131/211 142/137/222 139/135/209
f 144/142/223 145/143/223 143/134/223
f 145/143/223 146/144/223 143/134/223
f 136/133/207 146/144/224 141/138/214
f 141/138/220 145/143/225 137/141/221
f 141/138/214 142/137/212 136/133/207
f 143/134/208 146/144/224 136/133/207
f 140/139/226 141/138/220 138/140/219
f 146/144/225 145/143/225 141/138/220
f 144/142/227 143/134/208 135/132/206
f 133/136/205 135/132/206 134/131/205
f 142/137/228 140/139/217 139/135/216
f 122/119/229 148/120/191 129/122/190
f 125/127/230 124/126/200 127/128/199
f 148/120/231 147/118/203 124/126/200
f 132/124/232 126/123/232 130/121/232
f 121/117/233 122/119/185 130/121/184
f 132/124/234 130/121/184 131/125/193
f 123/129/235 125/127/195 126/123/194
f 152/145/124 151/146/124 150/147/124 149/148/124
f 3/149/236 4/150/236 150/147/236 151/146/236
f 2/151/237 3/149/237 151/146/237 152/145/237
f 1/152/238 2/151/238 152/145/238 149/148/238
f 4/150/239 1/152/239 149/148/239 150/147/239
